:version 1.10
:name ASF
:units
  mass 1
  length 1
  angle deg
:documentation
  ASF file generated by Kaydara
:root
  axis xyz
  order  tx ty tz rx ry rz
  position 0 0 0
  orientation 0 0 0
:bonedata
  begin
    id 1
    name RightUpLegDummy
    direction -1 2.30186e-007 8.31532e-007
    length 4.46685
    axis 0 0 0 xyz
  end
  begin
    id 2
    name RightUpLeg
    direction -2.30187e-007 -1 1.24343e-010
    length 16.4045
    axis -3.49089 -0.000906625 0.000286804 xyz
    dof rx ry rz
  end
  begin
    id 3
    name RightLeg
    direction -2.30181e-007 -1 -4.17157e-009
    length 17.5097
    axis 3.68512 0.0193738 -0.131023 xyz
    dof rx ry rz
  end
  begin
    id 4
    name RightFoot
    direction 8.31421e-007 -4.51202e-011 1
    length 6.49508
    axis 4.81691e-005 -0.120479 -0.188788 xyz
    dof rx ry rz
  end
  begin
    id 5
    name RightToes
    direction 0.00124746 -0.014064 0.9999
    length 3.85082
    axis 0.000481921 0.542163 -0.142578 xyz
    dof rx ry rz
  end
  begin
    id 6
    name SpineDummy
    direction 0.0717043 0.9409 -0.331007
    length 10.0032
    axis 0 0 0 xyz
  end
  begin
    id 7
    name Spine
    direction 2.30186e-007 1 4.58806e-011
    length 9.84055
    axis -0.001389 0.000121418 2.40972e-006 xyz
    dof rx ry rz
  end
  begin
    id 8
    name Spine1
    direction 0 0 0
    length 0
    axis -0.001389 0.000121451 1.30017e-006 xyz
    dof rx ry rz
  end
  begin
    id 9
    name HEadDummy
    direction -0.00347485 0.950688 -0.310128
    length 8.00997
    axis -0.001389 0.000121451 1.30017e-006 xyz
  end
  begin
    id 10
    name HEad
    direction -0.0222688 0.980941 0.193023
    length 5.12695
    axis -0.001389 0.000121451 1.30017e-006 xyz
    dof rx ry rz
  end
  begin
    id 11
    name LeftShoulder1Dummy
    direction 0.988871 0.146793 -0.0242004
    length 3.5792
    axis -0.001389 0.000121451 1.30017e-006 xyz
  end
  begin
    id 12
    name LeftShoulder1
    direction 0.993832 0.108932 0.020779
    length 4.16823
    axis -0.001389 0.000121451 1.30017e-006 xyz
    dof rx ry rz
  end
  begin
    id 13
    name LeftArm
    direction 1 3.44807e-006 -8.31404e-007
    length 9.91437
    axis -23.1894 0.134784 0.967509 xyz
    dof rx ry rz
  end
  begin
    id 14
    name LeftForeArm
    direction 1 3.44842e-006 -8.31581e-007
    length 9.08575
    axis -9.91835 -0.06569 -0.177793 xyz
    dof rx ry rz
  end
  begin
    id 15
    name LeftHand
    direction 0.992938 -0.0411636 0.11126
    length 5.32135
    axis -0.00960232 -0.00340091 0.185173 xyz
    dof rx ry rz
  end
  begin
    id 16
    name RightShoulderDummy
    direction -0.988871 0.146793 -0.0241962
    length 3.5792
    axis -0.001389 0.000121451 1.30017e-006 xyz
  end
  begin
    id 17
    name RightShoulder
    direction -0.993832 0.108933 0.0207785
    length 4.16823
    axis 0.215806 0.000203643 -0.0068026 xyz
    dof rx ry rz
  end
  begin
    id 18
    name RightArm
    direction -1 3.90912e-006 8.31284e-007
    length 9.91437
    axis -23.2009 -0.134239 -0.964101 xyz
    dof rx ry rz
  end
  begin
    id 19
    name RightForeArm
    direction -1 3.90882e-006 8.31502e-007
    length 9.08575
    axis -9.92322 0.0658061 0.178867 xyz
    dof rx ry rz
  end
  begin
    id 20
    name RightHand
    direction -0.992843 -0.0414603 0.112003
    length 5.28593
    axis -0.00960638 0.00330671 -0.185228 xyz
    dof rx ry rz
  end
  begin
    id 21
    name LeftUpLegDummy
    direction 1 -2.30186e-007 -8.31532e-007
    length 4.46685
    axis 0 0 0 xyz
  end
  begin
    id 22
    name LeftUpLeg
    direction -2.30187e-007 -1 6.00931e-010
    length 16.4045
    axis -3.48766 0.00143442 -0.000524262 xyz
    dof rx ry rz
  end
  begin
    id 23
    name LeftLeg
    direction -2.30187e-007 -1 1.6669e-009
    length 17.5097
    axis 3.68178 -0.00654042 -0.000285133 xyz
    dof rx ry rz
  end
  begin
    id 24
    name LeftFoot
    direction 8.31532e-007 -4.54478e-011 1
    length 6.49508
    axis 1.87233e-006 4.66016e-005 -8.6538e-006 xyz
    dof rx ry rz
  end
  begin
    id 25
    name LeftToes
    direction 0.00818058 -0.00485161 0.999955
    length 3.85048
    axis 1.06247e-005 4.65869e-005 -8.65513e-006 xyz
    dof rx ry rz
  end
:hierarchy
  begin
    root RightUpLegDummy SpineDummy LeftUpLegDummy
    RightUpLegDummy RightUpLeg
    RightUpLeg RightLeg
    RightLeg RightFoot
    RightFoot RightToes
    SpineDummy Spine
    Spine Spine1
    Spine1 HEadDummy LeftShoulder1Dummy RightShoulderDummy
    HEadDummy HEad
    LeftShoulder1Dummy LeftShoulder1
    LeftShoulder1 LeftArm
    LeftArm LeftForeArm
    LeftForeArm LeftHand
    RightShoulderDummy RightShoulder
    RightShoulder RightArm
    RightArm RightForeArm
    RightForeArm RightHand
    LeftUpLegDummy LeftUpLeg
    LeftUpLeg LeftLeg
    LeftLeg LeftFoot
    LeftFoot LeftToes
  end

:SAMPLES-PER-SECOND 30
:FULLY-SPECIFIED
:DEGREES
42
root  1.41098 33.9149 -0.472568 -177.214 -3.03365 -179.855
RightUpLeg  3.43285 -4.16157 -0.599852
RightLeg  2.11257 -2.64181 0.0732639
RightFoot  3.90759 0.0180357 -0.221631
RightToes  -26.71 -0.117322 -0.227727
Spine  1.75479 -1.47942 -0.515407
Spine1  3.54049 -2.93396 -1.27542
HEad  9.16131 0.140827 9.11053
LeftShoulder1  0 -2.42657e-020 -4.95415e-022
LeftArm  -68.8813 11.2538 -11.7807
LeftForeArm  59.2751 -24.1284 -4.4784
LeftHand  0.608249 -8.26589 -8.90381
RightShoulder  0 2.42657e-020 1.07489e-018
RightArm  -79.761 -9.99475 12.468
RightForeArm  63.852 5.52991 0.929567
RightHand  -0.883306 21.8716 -4.20041
LeftUpLeg  3.45827 5.52799 2.53162
LeftLeg  2.66146 -2.73613 0.0588709
LeftFoot  2.90331 0.0123548 -0.1695
LeftToes  -14.7858 1.18758e-006 1.19596e-007
43
root  1.40319 33.9151 -0.471247 -177.146 -3.00679 -179.853
RightUpLeg  3.4147 -4.1073 -0.601227
RightLeg  2.00317 -2.65915 0.0799163
RightFoot  3.98702 0.0181945 -0.224097
RightToes  -26.8428 -0.117173 -0.227727
Spine  1.73805 -1.4795 -0.515724
Spine1  3.50699 -2.93361 -1.27739
HEad  9.37488 0.33752 9.04841
LeftShoulder1  0 -2.42657e-020 -4.95415e-022
LeftArm  -69.012 11.2374 -11.7488
LeftForeArm  59.3912 -24.1368 -4.47992
LeftHand  0.601762 -8.28534 -8.77214
RightShoulder  0 2.42657e-020 1.07489e-018
RightArm  -79.7352 -9.95772 12.3414
RightForeArm  63.7714 5.51263 0.926699
RightHand  -0.901442 21.8735 -4.29374
LeftUpLeg  3.41273 5.56697 2.5155
LeftLeg  2.62216 -2.74663 0.0605865
LeftFoot  2.92651 0.0123805 -0.169898
LeftToes  -14.7905 1.18758e-006 1.19596e-007
44
root  1.39709 33.9148 -0.474202 -177.092 -2.98805 -179.847
RightUpLeg  3.3928 -4.11498 -0.606852
RightLeg  1.94787 -2.6325 0.0805366
RightFoot  4.00663 0.0184292 -0.227741
RightToes  -26.7897 -0.117024 -0.227727
Spine  1.72168 -1.48065 -0.515125
Spine1  3.47421 -2.93821 -1.27301
HEad  9.52594 0.521809 9.01442
LeftShoulder1  0 -2.42657e-020 -4.95415e-022
LeftArm  -69.0207 11.2525 -11.6867
LeftForeArm  59.2743 -24.1437 -4.48253
LeftHand  0.601584 -8.21248 -8.7422
RightShoulder  0 2.42657e-020 1.07489e-018
RightArm  -79.6352 -9.91691 12.2291
RightForeArm  63.7976 5.59535 0.941273
RightHand  -0.917505 21.9358 -4.36297
LeftUpLeg  3.39041 5.56011 2.50291
LeftLeg  2.57905 -2.71981 0.0575418
LeftFoot  2.91725 0.0123845 -0.169962
LeftToes  -14.6614 1.18758e-006 1.19596e-007
45
root  1.3891 33.9143 -0.484488 -177.059 -2.96863 -179.842
RightUpLeg  3.3885 -4.06714 -0.60639
RightLeg  1.92129 -2.66521 0.0827617
RightFoot  4.0062 0.0187107 -0.232113
RightToes  -26.8085 -0.116876 -0.227727
Spine  1.71626 -1.4845 -0.512096
Spine1  3.46322 -2.94642 -1.26746
HEad  9.61315 0.678733 8.93535
LeftShoulder1  0 -2.42657e-020 -4.95415e-022
LeftArm  -69.0038 11.304 -11.6205
LeftForeArm  59.266 -24.148 -4.48259
LeftHand  0.607368 -8.2025 -8.83268
RightShoulder  0 2.42657e-020 1.07489e-018
RightArm  -79.7758 -9.86952 12.1596
RightForeArm  63.8915 5.70984 0.961315
RightHand  -0.922152 22.0838 -4.35426
LeftUpLeg  3.374 5.5202 2.48559
LeftLeg  2.59175 -2.66133 0.0503205
LeftFoot  2.88795 0.0123708 -0.169748
LeftToes  -14.7449 1.18758e-006 1.19596e-007
46
root  1.38179 33.9138 -0.497695 -177.037 -2.9628 -179.841
RightUpLeg  3.37024 -3.95752 -0.601769
RightLeg  1.9556 -2.77216 0.0844107
RightFoot  3.98161 0.0191191 -0.238456
RightToes  -26.7752 -0.116729 -0.227727
Spine  1.71678 -1.49016 -0.508793
Spine1  3.46412 -2.95809 -1.26296
HEad  9.62518 0.812602 8.87495
LeftShoulder1  0 -2.42657e-020 -4.95415e-022
LeftArm  -69.0544 11.3482 -11.5721
LeftForeArm  59.2732 -24.1296 -4.47865
LeftHand  0.605813 -8.15423 -8.75357
RightShoulder  0 2.42657e-020 1.07489e-018
RightArm  -79.7812 -9.82591 12.0964
RightForeArm  64.036 5.84734 0.985325
RightHand  -0.914792 22.213 -4.28867
LeftUpLeg  3.34998 5.5134 2.47176
LeftLeg  2.64169 -2.64118 0.0476298
LeftFoot  2.8485 0.012343 -0.169316
LeftToes  -14.693 1.18758e-006 1.19596e-007
47
root  1.3752 33.9127 -0.514697 -176.999 -2.96037 -179.84
RightUpLeg  3.34402 -3.97588 -0.607082
RightLeg  1.98584 -2.75426 0.0824221
RightFoot  3.96701 0.0192725 -0.240838
RightToes  -26.8115 -0.116581 -0.227727
Spine  1.7141 -1.50291 -0.505626
Spine1  3.45861 -2.98424 -1.26034
HEad  9.52358 0.918849 8.85447
LeftShoulder1  0 -2.42657e-020 -4.95415e-022
LeftArm  -69.1526 11.4425 -11.5232
LeftForeArm  59.35 -24.12 -4.47646
LeftHand  0.603294 -8.13111 -8.69514
RightShoulder  0 2.42657e-020 1.07489e-018
RightArm  -79.7557 -9.7779 12.0979
RightForeArm  64.116 5.98432 1.0094
RightHand  -0.922349 22.2867 -4.31119
LeftUpLeg  3.35037 5.55534 2.46926
LeftLeg  2.62645 -2.68089 0.0560996
LeftFoot  2.83219 0.0123048 -0.168722
LeftToes  -14.6957 1.18758e-006 1.19596e-007
48
root  1.37027 33.9104 -0.532939 -176.955 -2.96738 -179.841
RightUpLeg  3.35823 -3.94631 -0.607964
RightLeg  1.93521 -2.80006 0.0852014
RightFoot  3.96893 0.0193251 -0.241655
RightToes  -26.7557 -0.116434 -0.227727
Spine  1.69674 -1.50781 -0.504229
Spine1  3.42356 -2.99487 -1.25065
HEad  9.54205 0.922835 8.81173
LeftShoulder1  0 -2.42657e-020 -4.95415e-022
LeftArm  -69.2076 11.4794 -11.4726
LeftForeArm  59.3867 -24.0667 -4.46506
LeftHand  0.602852 -8.13938 -8.75339
RightShoulder  0 2.42657e-020 1.07489e-018
RightArm  -79.4654 -9.76829 12.0328
RightForeArm  63.8728 6.04555 1.02083
RightHand  -0.899478 22.2971 -4.19304
LeftUpLeg  3.34558 5.49449 2.4536
LeftLeg  2.59268 -2.618 0.0529562
LeftFoot  2.81388 0.0122003 -0.167098
LeftToes  -14.6441 1.18758e-006 1.19596e-007
49
root  1.36675 33.9075 -0.552411 -176.92 -2.98169 -179.843
RightUpLeg  3.38667 -3.90066 -0.601479
RightLeg  1.8819 -2.87916 0.0913358
RightFoot  3.9403 0.0194379 -0.243405
RightToes  -26.7038 -0.116286 -0.227727
Spine  1.68366 -1.50917 -0.506919
Spine1  3.39709 -2.99864 -1.25384
HEad  9.60741 0.877827 8.81853
LeftShoulder1  0 -2.42657e-020 -4.95415e-022
LeftArm  -69.1799 11.5107 -11.4068
LeftForeArm  59.2577 -24.0227 -4.45604
LeftHand  0.605653 -8.13528 -8.92676
RightShoulder  0 2.42657e-020 1.07489e-018
RightArm  -79.3185 -9.78476 12.0014
RightForeArm  63.8268 6.11639 1.03349
RightHand  -0.875946 22.2323 -4.08705
LeftUpLeg  3.34252 5.41895 2.43771
LeftLeg  2.60457 -2.55076 0.0476465
LeftFoot  2.77651 0.0120275 -0.164412
LeftToes  -14.632 1.18758e-006 1.19596e-007
50
root  1.36531 33.9066 -0.573935 -176.882 -3.00822 -179.845
RightUpLeg  3.41541 -3.85586 -0.592783
RightLeg  1.82874 -2.94084 0.0959987
RightFoot  3.95235 0.0197243 -0.247854
RightToes  -26.6417 -0.116138 -0.227727
Spine  1.66781 -1.50891 -0.513703
Spine1  3.36523 -2.99871 -1.26514
HEad  9.61236 0.826602 8.84295
LeftShoulder1  0 -2.42657e-020 -4.95415e-022
LeftArm  -69.3044 11.5052 -11.3749
LeftForeArm  59.3407 -23.9724 -4.44519
LeftHand  0.601968 -8.10987 -8.8802
RightShoulder  0 2.42657e-020 1.07489e-018
RightArm  -79.1865 -9.82903 11.9761
RightForeArm  63.6602 6.08863 1.02896
RightHand  -0.875789 22.1674 -4.09963
LeftUpLeg  3.34986 5.41316 2.43691
LeftLeg  2.57445 -2.57315 0.0494233
LeftFoot  2.7812 0.011871 -0.161981
LeftToes  -14.6327 1.18758e-006 1.19596e-007
51
root  1.3629 33.9062 -0.595885 -176.836 -3.03773 -179.85
RightUpLeg  3.42656 -3.82851 -0.584226
RightLeg  1.79374 -3.04375 0.101193
RightFoot  3.95149 0.0201766 -0.254878
RightToes  -26.6099 -0.115989 -0.227727
Spine  1.64789 -1.50856 -0.520787
Spine1  3.32545 -2.99751 -1.27846
HEad  9.69103 0.834256 8.86814
LeftShoulder1  0 -2.42657e-020 -4.95415e-022
LeftArm  -69.2887 11.5344 -11.3652
LeftForeArm  59.3482 -23.9812 -4.44705
LeftHand  0.597504 -8.13934 -8.84022
RightShoulder  0 2.42657e-020 1.07489e-018
RightArm  -79.1452 -9.8778 11.936
RightForeArm  63.6071 5.94386 1.00343
RightHand  -0.877888 22.0796 -4.12859
LeftUpLeg  3.35255 5.40486 2.4312
LeftLeg  2.53837 -2.58907 0.0513653
LeftFoot  2.78443 0.0118154 -0.161117
LeftToes  -14.6277 1.18758e-006 1.19596e-007
52
root  1.36301 33.906 -0.608676 -176.795 -3.0929 -179.87
RightUpLeg  3.34087 -3.69103 -0.567757
RightLeg  1.94003 -3.2468 0.0996587
RightFoot  3.84063 0.0206402 -0.262077
RightToes  -26.4034 -0.115839 -0.22719
Spine  1.64356 -1.50966 -0.539972
Spine1  3.31737 -2.99855 -1.31598
HEad  9.72251 0.83395 8.92631
LeftShoulder1  0 -2.42657e-020 -4.95415e-022
LeftArm  -69.2189 11.4971 -11.3686
LeftForeArm  59.3443 -23.9681 -4.44428
LeftHand  0.594359 -8.19458 -8.84794
RightShoulder  0 2.42657e-020 1.07489e-018
RightArm  -79.3367 -9.98199 11.9559
RightForeArm  63.6614 5.86828 0.989911
RightHand  -0.879371 22.0114 -4.15049
LeftUpLeg  3.28014 5.43228 2.42137
LeftLeg  2.61853 -2.66655 0.04917
LeftFoot  2.76646 0.011984 -0.163738
LeftToes  -14.5818 1.18758e-006 1.19596e-007
53
root  1.36408 33.906 -0.614824 -176.786 -3.17676 -179.904
RightUpLeg  3.21665 -3.49621 -0.550406
RightLeg  2.20463 -3.56769 0.0930504
RightFoot  3.70078 0.021403 -0.273924
RightToes  -26.273 -0.115688 -0.226648
Spine  1.67168 -1.51387 -0.555171
Spine1  3.37442 -3.00523 -1.34529
HEad  9.62798 0.870585 8.81999
LeftShoulder1  0 -2.42657e-020 -4.95415e-022
LeftArm  -69.2474 11.4379 -11.5194
LeftForeArm  59.2317 -23.9411 -4.43881
LeftHand  0.593299 -8.11958 -8.81806
RightShoulder  0 2.42657e-020 1.07489e-018
RightArm  -79.4082 -10.0727 12.0064
RightForeArm  63.6692 5.91369 0.997936
RightHand  -0.875832 21.9187 -4.1518
LeftUpLeg  3.19242 5.36336 2.3917
LeftLeg  2.76142 -2.68223 0.0427559
LeftFoot  2.75822 0.0121044 -0.165608
LeftToes  -14.636 1.18758e-006 1.19596e-007
